<svg width="33" height="33" viewBox="0 0 33 33" fill="none" xmlns="http://www.w3.org/2000/svg">
<path d="M28.705 25.295C27.9244 24.5473 27.1647 23.7781 26.4266 22.9883C25.8066 22.3583 25.4333 21.9 25.4333 21.9L20.7666 19.6717C22.635 17.5527 23.6661 14.825 23.6666 12C23.6666 5.56834 18.4333 0.333344 12 0.333344C5.56665 0.333344 0.333313 5.56834 0.333313 12C0.333313 18.4317 5.56665 23.6667 12 23.6667C14.9383 23.6667 17.6166 22.5667 19.6716 20.7683L21.9 25.435C21.9 25.435 22.3583 25.8083 22.9883 26.4283C23.6333 27.0333 24.4816 27.8517 25.295 28.7067L27.5583 31.0267L28.565 32.1033L32.1 28.5683L31.0233 27.5617C30.3916 26.9417 29.5483 26.1183 28.705 25.295ZM12 20.3333C7.40498 20.3333 3.66665 16.595 3.66665 12C3.66665 7.40501 7.40498 3.66668 12 3.66668C16.595 3.66668 20.3333 7.40501 20.3333 12C20.3333 16.595 16.595 20.3333 12 20.3333Z" fill="white"/>
</svg>
